<svg id="visual" viewBox="0 0 900 300" width="900" height="300" xmlns="http://www.w3.org/2000/svg" xmlns:xlink="http://www.w3.org/1999/xlink" version="1.1"><rect x="0" y="0" width="900" height="300" fill="#eee"></rect><path d="M0 151L21.5 151.8C43 152.7 86 154.3 128.8 155.8C171.7 157.3 214.3 158.7 257.2 163.2C300 167.7 343 175.3 385.8 184.2C428.7 193 471.3 203 514.2 201.2C557 199.3 600 185.7 642.8 181.3C685.7 177 728.3 182 771.2 188.3C814 194.7 857 202.3 878.5 206.2L900 210L900 301L878.5 301C857 301 814 301 771.2 301C728.3 301 685.7 301 642.8 301C600 301 557 301 514.2 301C471.3 301 428.7 301 385.8 301C343 301 300 301 257.2 301C214.3 301 171.7 301 128.8 301C86 301 43 301 21.5 301L0 301Z" fill="#5374f9"></path><path d="M0 194L21.5 194.5C43 195 86 196 128.8 194.8C171.7 193.7 214.3 190.3 257.2 191C300 191.7 343 196.3 385.8 197C428.7 197.7 471.3 194.3 514.2 195C557 195.7 600 200.3 642.8 206.3C685.7 212.3 728.3 219.7 771.2 222.2C814 224.7 857 222.3 878.5 221.2L900 220L900 301L878.5 301C857 301 814 301 771.2 301C728.3 301 685.7 301 642.8 301C600 301 557 301 514.2 301C471.3 301 428.7 301 385.8 301C343 301 300 301 257.2 301C214.3 301 171.7 301 128.8 301C86 301 43 301 21.5 301L0 301Z" fill="#3c60fb"></path><path d="M0 226L21.5 227.5C43 229 86 232 128.8 234.5C171.7 237 214.3 239 257.2 242.7C300 246.3 343 251.7 385.8 250.2C428.7 248.7 471.3 240.3 514.2 238.7C557 237 600 242 642.8 239.3C685.7 236.7 728.3 226.3 771.2 225.3C814 224.3 857 232.7 878.5 236.8L900 241L900 301L878.5 301C857 301 814 301 771.2 301C728.3 301 685.7 301 642.8 301C600 301 557 301 514.2 301C471.3 301 428.7 301 385.8 301C343 301 300 301 257.2 301C214.3 301 171.7 301 128.8 301C86 301 43 301 21.5 301L0 301Z" fill="#234bfb"></path><path d="M0 267L21.5 263.7C43 260.3 86 253.7 128.8 254C171.7 254.3 214.3 261.7 257.2 264.7C300 267.7 343 266.3 385.8 263.3C428.7 260.3 471.3 255.7 514.2 256.7C557 257.7 600 264.3 642.8 263.5C685.7 262.7 728.3 254.3 771.2 254.3C814 254.3 857 262.7 878.5 266.8L900 271L900 301L878.5 301C857 301 814 301 771.2 301C728.3 301 685.7 301 642.8 301C600 301 557 301 514.2 301C471.3 301 428.7 301 385.8 301C343 301 300 301 257.2 301C214.3 301 171.7 301 128.8 301C86 301 43 301 21.5 301L0 301Z" fill="#0032f9"></path></svg>